<svg width="120" height="13" viewBox="0 0 120 13" fill="none" xmlns="http://www.w3.org/2000/svg">
<g clip-path="url(#clip0_27_2)">
<g filter="url(#filter0_dddd_27_2)">
<path d="M18.9553 11.7513C18.8095 12.0038 18.4866 12.0904 18.2341 11.9446C17.9816 11.7988 17.8951 11.4759 18.0408 11.2234L21.2086 5.73674C21.3543 5.48422 21.6772 5.3977 21.9298 5.54349C22.1823 5.68928 22.2688 6.01217 22.123 6.26469L18.9553 11.7513Z" fill="white"/>
<path d="M20.9314 6.27831C21.1136 6.59396 21.5172 6.70211 21.8329 6.51987C22.1485 6.33763 22.3173 6.04505 22.0744 5.61837L19.0387 0.360351C18.8565 0.0447067 18.4528 -0.0634411 18.1372 0.118796C17.8216 0.301033 17.7134 0.704646 17.8957 1.02029L20.9314 6.27831Z" fill="white"/>
<path d="M9.08818 6.13147C8.67583 6.54383 8.00727 6.54383 7.59491 6.13148C7.18256 5.71912 7.18256 5.05056 7.59491 4.6382L12.0747 0.158386L13.7678 1.45187L9.08818 6.13147Z" fill="white"/>
<path d="M12.5502 1.58386C12.5454 1.58386 12.5407 1.58381 12.5361 1.58373C11.7202 1.56949 11.7342 1.25704e-06 12.5502 2.5391e-07V2.5391e-07H18.3576C18.8592 2.5391e-07 19.1495 0.354558 19.1495 0.791927C19.1495 1.2293 18.795 1.58385 18.3576 1.58385L12.5502 1.58386Z" fill="white"/>
<path d="M3.23856 1.21426C3.38435 0.96174 3.70724 0.875222 3.95976 1.02101C4.21227 1.1668 4.29879 1.48969 4.153 1.74221L0.985289 7.22884C0.839499 7.48136 0.516609 7.56787 0.264094 7.42208C0.0115786 7.27629 -0.0749393 6.9534 0.0708505 6.70089L3.23856 1.21426Z" fill="white"/>
<path d="M3.23856 1.21426C3.38435 0.96174 3.70724 0.875222 3.95976 1.02101C4.21227 1.1668 4.29879 1.48969 4.153 1.74221L0.985289 7.22884C0.839499 7.48136 0.516609 7.56787 0.264094 7.42208C0.0115786 7.27629 -0.0749393 6.9534 0.0708505 6.70089L3.23856 1.21426Z" fill="white"/>
<path d="M1.26247 6.68726C1.08024 6.37162 0.676625 6.26347 0.360981 6.44571C0.0453364 6.62794 -0.123409 6.92053 0.119426 7.3472L3.15515 12.6052C3.33739 12.9209 3.741 13.029 4.05664 12.8468C4.37229 12.6645 4.48043 12.2609 4.2982 11.9453L1.26247 6.68726Z" fill="white"/>
<path d="M1.26247 6.68726C1.08024 6.37162 0.676625 6.26347 0.360981 6.44571C0.0453364 6.62794 -0.123409 6.92053 0.119426 7.3472L3.15515 12.6052C3.33739 12.9209 3.741 13.029 4.05664 12.8468C4.37229 12.6645 4.48043 12.2609 4.2982 11.9453L1.26247 6.68726Z" fill="white"/>
<path d="M13.1057 6.8341C13.518 6.42175 14.1866 6.42174 14.5989 6.8341C15.0113 7.24646 15.0113 7.91502 14.5989 8.32737L10.1191 12.8072L8.42606 11.5137L13.1057 6.8341Z" fill="white"/>
<path d="M13.1057 6.8341C13.518 6.42175 14.1866 6.42174 14.5989 6.8341C15.0113 7.24646 15.0113 7.91502 14.5989 8.32737L10.1191 12.8072L8.42606 11.5137L13.1057 6.8341Z" fill="white"/>
<path d="M9.6437 11.3817C9.6484 11.3817 9.65311 11.3818 9.6578 11.3818C10.4737 11.3961 10.4597 12.9656 9.6437 12.9656V12.9656H3.83623C3.33467 12.9656 3.0443 12.611 3.0443 12.1736C3.0443 11.7363 3.39886 11.3817 3.83623 11.3817L9.6437 11.3817Z" fill="white"/>
<path d="M9.6437 11.3817C9.6484 11.3817 9.65311 11.3818 9.6578 11.3818C10.4737 11.3961 10.4597 12.9656 9.6437 12.9656V12.9656H3.83623C3.33467 12.9656 3.0443 12.611 3.0443 12.1736C3.0443 11.7363 3.39886 11.3817 3.83623 11.3817L9.6437 11.3817Z" fill="white"/>
</g>
<path d="M34.2108 1.9C35.0948 1.9 35.7838 2.16 36.2778 2.68C36.7805 3.19133 37.0318 3.85 37.0318 4.656C37.0318 5.462 36.7805 6.125 36.2778 6.645C35.7752 7.15633 35.0862 7.412 34.2108 7.412H32.4558V11H31.1038V1.9H34.2108ZM34.0288 6.138C34.5055 6.138 34.8825 6.01233 35.1598 5.761C35.4372 5.501 35.5758 5.13267 35.5758 4.656C35.5758 4.17933 35.4372 3.81533 35.1598 3.564C34.8825 3.304 34.5055 3.174 34.0288 3.174H32.4558V6.138H34.0288ZM40.1645 4.799C41.0659 4.799 41.7679 5.08933 42.2705 5.67C42.7819 6.242 43.0375 7.01767 43.0375 7.997V8.205H38.3835C38.4095 8.73367 38.5872 9.16267 38.9165 9.492C39.2545 9.81267 39.6835 9.973 40.2035 9.973C40.9142 9.973 41.5295 9.622 42.0495 8.92L42.9465 9.765C42.2532 10.7183 41.3475 11.195 40.2295 11.195C39.2762 11.195 38.5135 10.9047 37.9415 10.324C37.3782 9.73467 37.0965 8.96333 37.0965 8.01C37.0965 7.074 37.3695 6.307 37.9155 5.709C38.4702 5.10233 39.2199 4.799 40.1645 4.799ZM40.0865 5.969C39.6445 5.969 39.2805 6.08167 38.9945 6.307C38.7085 6.53233 38.5265 6.85733 38.4485 7.282H41.6595C41.6335 6.866 41.4775 6.54533 41.1915 6.32C40.9142 6.086 40.5459 5.969 40.0865 5.969ZM47.5824 4.812V6.307H47.3874C46.7547 6.307 46.278 6.47167 45.9574 6.801C45.6367 7.12167 45.4764 7.633 45.4764 8.335V11H44.2024V4.994H45.4764V6.307H45.5024C45.6497 5.84767 45.8924 5.48367 46.2304 5.215C46.577 4.94633 46.9974 4.812 47.4914 4.812H47.5824ZM50.0985 11.195C49.1971 11.195 48.3825 10.9827 47.6545 10.558L48.2265 9.427C48.8851 9.80833 49.5221 9.999 50.1375 9.999C50.7615 9.999 51.0735 9.81267 51.0735 9.44C51.0735 9.19733 50.8611 8.972 50.4365 8.764L49.3445 8.231C48.5038 7.83233 48.0835 7.256 48.0835 6.502C48.0835 5.956 48.2698 5.53567 48.6425 5.241C49.0238 4.94633 49.5481 4.799 50.2155 4.799C50.9088 4.799 51.6021 4.955 52.2955 5.267L51.7755 6.372C51.1688 6.112 50.6358 5.982 50.1765 5.982C49.6825 5.982 49.4355 6.13367 49.4355 6.437C49.4355 6.58433 49.4831 6.71 49.5785 6.814C49.6825 6.918 49.8645 7.03067 50.1245 7.152L51.2425 7.685C52.0398 8.05767 52.4385 8.621 52.4385 9.375C52.4385 9.973 52.2261 10.428 51.8015 10.74C51.3855 11.0433 50.8178 11.195 50.0985 11.195ZM54.0286 5.709C54.6526 5.10233 55.437 4.799 56.3816 4.799C57.3263 4.799 58.1106 5.10233 58.7346 5.709C59.3586 6.31567 59.6706 7.07833 59.6706 7.997C59.6706 8.91567 59.3586 9.67833 58.7346 10.285C58.1106 10.8917 57.3263 11.195 56.3816 11.195C55.437 11.195 54.6526 10.8917 54.0286 10.285C53.4046 9.67833 53.0926 8.91567 53.0926 7.997C53.0926 7.07833 53.4046 6.31567 54.0286 5.709ZM57.7726 6.58C57.4173 6.22467 56.9536 6.047 56.3816 6.047C55.8096 6.047 55.3416 6.22467 54.9776 6.58C54.6223 6.93533 54.4446 7.40767 54.4446 7.997C54.4446 8.58633 54.6223 9.05867 54.9776 9.414C55.3416 9.76933 55.8096 9.947 56.3816 9.947C56.9536 9.947 57.4173 9.76933 57.7726 9.414C58.1366 9.05867 58.3186 8.58633 58.3186 7.997C58.3186 7.40767 58.1366 6.93533 57.7726 6.58ZM64.1089 4.799C64.8023 4.799 65.3526 5.00267 65.7599 5.41C66.1673 5.80867 66.3709 6.44133 66.3709 7.308V11H65.0969V7.529C65.0969 6.55833 64.6376 6.073 63.7189 6.073C62.6529 6.073 62.1199 6.75767 62.1199 8.127V11H60.8459V4.994H62.1199V5.904H62.1459C62.5619 5.16733 63.2163 4.799 64.1089 4.799ZM70.4014 11.195C69.5781 11.195 68.8848 10.9047 68.3214 10.324C67.7581 9.74333 67.4764 8.96767 67.4764 7.997C67.4764 7.02633 67.7581 6.25067 68.3214 5.67C68.8848 5.08933 69.5781 4.799 70.4014 4.799C71.3374 4.799 72.0134 5.15867 72.4294 5.878H72.4554V4.994H73.7294V11H72.4554V10.116H72.4294C72.0134 10.8353 71.3374 11.195 70.4014 11.195ZM69.3354 9.414C69.6734 9.76933 70.1198 9.947 70.6744 9.947C71.2291 9.947 71.6754 9.76933 72.0134 9.414C72.3514 9.05 72.5204 8.57767 72.5204 7.997C72.5204 7.41633 72.3514 6.94833 72.0134 6.593C71.6754 6.229 71.2291 6.047 70.6744 6.047C70.1198 6.047 69.6734 6.229 69.3354 6.593C68.9974 6.94833 68.8284 7.41633 68.8284 7.997C68.8284 8.57767 68.9974 9.05 69.3354 9.414ZM76.6322 1.9V11H75.3582V1.9H76.6322ZM83.8937 1.9V8.764C83.8937 10.298 83.2307 11.065 81.9047 11.065H81.4367V9.752H81.7747C82.0434 9.752 82.2384 9.68267 82.3597 9.544C82.481 9.39667 82.5417 9.13667 82.5417 8.764V1.9H83.8937ZM86.1351 5.709C86.7591 5.10233 87.5434 4.799 88.4881 4.799C89.4327 4.799 90.2171 5.10233 90.8411 5.709C91.4651 6.31567 91.7771 7.07833 91.7771 7.997C91.7771 8.91567 91.4651 9.67833 90.8411 10.285C90.2171 10.8917 89.4327 11.195 88.4881 11.195C87.5434 11.195 86.7591 10.8917 86.1351 10.285C85.5111 9.67833 85.1991 8.91567 85.1991 7.997C85.1991 7.07833 85.5111 6.31567 86.1351 5.709ZM89.8791 6.58C89.5237 6.22467 89.0601 6.047 88.4881 6.047C87.9161 6.047 87.4481 6.22467 87.0841 6.58C86.7287 6.93533 86.5511 7.40767 86.5511 7.997C86.5511 8.58633 86.7287 9.05867 87.0841 9.414C87.4481 9.76933 87.9161 9.947 88.4881 9.947C89.0601 9.947 89.5237 9.76933 89.8791 9.414C90.2431 9.05867 90.4251 8.58633 90.4251 7.997C90.4251 7.40767 90.2431 6.93533 89.8791 6.58ZM95.0844 11.195C94.443 11.195 93.9144 10.987 93.4984 10.571C93.091 10.1463 92.8874 9.50067 92.8874 8.634V4.994H94.1874V8.504C94.1874 8.98933 94.2957 9.35333 94.5124 9.596C94.7377 9.83867 95.0497 9.96 95.4484 9.96C96.4537 9.96 96.9564 9.26233 96.9564 7.867V4.994H98.2304V11H96.9564V10.09H96.9304C96.5664 10.8267 95.951 11.195 95.0844 11.195ZM103.175 4.812V6.307H102.98C102.347 6.307 101.871 6.47167 101.55 6.801C101.229 7.12167 101.069 7.633 101.069 8.335V11H99.7951V4.994H101.069V6.307H101.095C101.242 5.84767 101.485 5.48367 101.823 5.215C102.17 4.94633 102.59 4.812 103.084 4.812H103.175ZM107.349 4.799C108.042 4.799 108.593 5.00267 109 5.41C109.407 5.80867 109.611 6.44133 109.611 7.308V11H108.337V7.529C108.337 6.55833 107.878 6.073 106.959 6.073C105.893 6.073 105.36 6.75767 105.36 8.127V11H104.086V4.994H105.36V5.904H105.386C105.802 5.16733 106.456 4.799 107.349 4.799ZM113.642 11.195C112.818 11.195 112.125 10.9047 111.562 10.324C110.998 9.74333 110.717 8.96767 110.717 7.997C110.717 7.02633 110.998 6.25067 111.562 5.67C112.125 5.08933 112.818 4.799 113.642 4.799C114.578 4.799 115.254 5.15867 115.67 5.878H115.696V4.994H116.97V11H115.696V10.116H115.67C115.254 10.8353 114.578 11.195 113.642 11.195ZM112.576 9.414C112.914 9.76933 113.36 9.947 113.915 9.947C114.469 9.947 114.916 9.76933 115.254 9.414C115.592 9.05 115.761 8.57767 115.761 7.997C115.761 7.41633 115.592 6.94833 115.254 6.593C114.916 6.229 114.469 6.047 113.915 6.047C113.36 6.047 112.914 6.229 112.576 6.593C112.238 6.94833 112.069 7.41633 112.069 7.997C112.069 8.57767 112.238 9.05 112.576 9.414ZM119.872 1.9V11H118.598V1.9H119.872Z" fill="white"/>
</g>
<defs>
<filter id="filter0_dddd_27_2" x="-11" y="-2" width="44.1938" height="53.9656" filterUnits="userSpaceOnUse" color-interpolation-filters="sRGB">
<feFlood flood-opacity="0" result="BackgroundImageFix"/>
<feColorMatrix in="SourceAlpha" type="matrix" values="0 0 0 0 0 0 0 0 0 0 0 0 0 0 0 0 0 0 127 0" result="hardAlpha"/>
<feOffset dy="2"/>
<feGaussianBlur stdDeviation="2"/>
<feColorMatrix type="matrix" values="0 0 0 0 0 0 0 0 0 0 0 0 0 0 0 0 0 0 0.1 0"/>
<feBlend mode="normal" in2="BackgroundImageFix" result="effect1_dropShadow_27_2"/>
<feColorMatrix in="SourceAlpha" type="matrix" values="0 0 0 0 0 0 0 0 0 0 0 0 0 0 0 0 0 0 127 0" result="hardAlpha"/>
<feOffset dy="7"/>
<feGaussianBlur stdDeviation="3.5"/>
<feColorMatrix type="matrix" values="0 0 0 0 0 0 0 0 0 0 0 0 0 0 0 0 0 0 0.09 0"/>
<feBlend mode="normal" in2="effect1_dropShadow_27_2" result="effect2_dropShadow_27_2"/>
<feColorMatrix in="SourceAlpha" type="matrix" values="0 0 0 0 0 0 0 0 0 0 0 0 0 0 0 0 0 0 127 0" result="hardAlpha"/>
<feOffset dy="16"/>
<feGaussianBlur stdDeviation="4.5"/>
<feColorMatrix type="matrix" values="0 0 0 0 0 0 0 0 0 0 0 0 0 0 0 0 0 0 0.05 0"/>
<feBlend mode="normal" in2="effect2_dropShadow_27_2" result="effect3_dropShadow_27_2"/>
<feColorMatrix in="SourceAlpha" type="matrix" values="0 0 0 0 0 0 0 0 0 0 0 0 0 0 0 0 0 0 127 0" result="hardAlpha"/>
<feOffset dy="28"/>
<feGaussianBlur stdDeviation="5.5"/>
<feColorMatrix type="matrix" values="0 0 0 0 0 0 0 0 0 0 0 0 0 0 0 0 0 0 0.02 0"/>
<feBlend mode="normal" in2="effect3_dropShadow_27_2" result="effect4_dropShadow_27_2"/>
<feBlend mode="normal" in="SourceGraphic" in2="effect4_dropShadow_27_2" result="shape"/>
</filter>
<clipPath id="clip0_27_2">
<rect width="120" height="13" fill="white"/>
</clipPath>
</defs>
</svg>
